# xmcd
#
# Track frame offsets:
#	150
#	12148
#	28101
#	43478
#	55779
#	69228
#	84126
#	99916
#	115459
#	131263
#	144294
#	158489
#	175362
#
# Disc length: 2515 seconds
#
# Revision: 0
# Processed by: cddbd v1.5.2PL0 Copyright (c) Steve Scherf et al.
# Submitted via: dBpowerAMP V4.0
#
DISCID=9c09d10d
DTITLE=Anne Nørdsti - Her vil jeg bo
DYEAR=2006
DGENRE=Danseband
TTITLE0=Når jentene kommer (er festen i gang)
TTITLE1=Hjembygda mi
TTITLE2=Jeg tenner et lys
TTITLE3=Kom og ta omkring meg
TTITLE4=Harry
TTITLE5=Her vil jeg bo
TTITLE6=Resten av mitt liv
TTITLE7=Jeg tar fri
TTITLE8=Alle kan hjelpe til
TTITLE9=Engel i natt
TTITLE10=Mjøsas hvite svane
TTITLE11=Det hender i blandt
TTITLE12=Si meg (med Kim and Hallo)
EXTD=
EXTT0=
EXTT1=
EXTT2=
EXTT3=
EXTT4=
EXTT5=
EXTT6=
EXTT7=
EXTT8=
EXTT9=
EXTT10=
EXTT11=
EXTT12=
PLAYORDER=
